HIERARCHY
ROOT Hips
{
	OFFSET 0.00000 0.00000 0.00000
	CHANNELS 6 Xposition Yposition Zposition Zrotation Yrotation Xrotation 
	JOINT LHipJoint
	{
		OFFSET 0 0 0
		CHANNELS 3 Zrotation Yrotation Xrotation
		JOINT LeftUpLeg
		{
			OFFSET 1.64549 -1.70879 0.84566
			CHANNELS 3 Zrotation Yrotation Xrotation
			JOINT LeftLeg
			{
				OFFSET 2.24963 -6.18082 0.00000
				CHANNELS 3 Zrotation Yrotation Xrotation
				JOINT LeftFoot
				{
					OFFSET 2.71775 -7.46697 0.00000
					CHANNELS 3 Zrotation Yrotation Xrotation
					JOINT LeftToeBase
					{
						OFFSET 0.18768 -0.51564 2.24737
						CHANNELS 3 Zrotation Yrotation Xrotation
						End Site
						{
							OFFSET 0.00000 -0.00000 1.15935
						}
					}
				}
			}
		}
	}
	JOINT RHipJoint
	{
		OFFSET 0 0 0
		CHANNELS 3 Zrotation Yrotation Xrotation
		JOINT RightUpLeg
		{
			OFFSET -1.58830 -1.70879 0.84566
			CHANNELS 3 Zrotation Yrotation Xrotation
			JOINT RightLeg
			{
				OFFSET -2.25006 -6.18201 0.00000
				CHANNELS 3 Zrotation Yrotation Xrotation
				JOINT RightFoot
				{
					OFFSET -2.72829 -7.49593 0.00000
					CHANNELS 3 Zrotation Yrotation Xrotation
					JOINT RightToeBase
					{
						OFFSET -0.21541 -0.59185 2.10643
						CHANNELS 3 Zrotation Yrotation Xrotation
						End Site
						{
							OFFSET -0.00000 -0.00000 1.09838
						}
					}
				}
			}
		}
	}
	JOINT LowerBack
	{
		OFFSET 0 0 0
		CHANNELS 3 Zrotation Yrotation Xrotation
		JOINT Spine
		{
			OFFSET 0.03142 2.10496 -0.11038
			CHANNELS 3 Zrotation Yrotation Xrotation
			JOINT Spine1
			{
				OFFSET -0.01863 2.10897 -0.06956
				CHANNELS 3 Zrotation Yrotation Xrotation
				JOINT Neck
				{
					OFFSET 0 0 0
					CHANNELS 3 Zrotation Yrotation Xrotation
					JOINT Neck1
					{
						OFFSET -0.02267 1.73238 0.00451
						CHANNELS 3 Zrotation Yrotation Xrotation
						JOINT Head
						{
							OFFSET -0.05808 1.54724 -0.61749
							CHANNELS 3 Zrotation Yrotation Xrotation
							End Site
							{
								OFFSET -0.01396 1.71468 -0.21082
							}
						}
					}
				}
				JOINT LeftShoulder
				{
					OFFSET 0 0 0
					CHANNELS 3 Zrotation Yrotation Xrotation
					JOINT LeftArm
					{
						OFFSET 3.44898 0.50298 0.21920
						CHANNELS 3 Zrotation Yrotation Xrotation
						JOINT LeftForeArm
						{
							OFFSET 5.41917 -0.00000 -0.00000
							CHANNELS 3 Zrotation Yrotation Xrotation
							JOINT LeftHand
							{
								OFFSET 2.44373 -0.00000 0.00000
								CHANNELS 3 Zrotation Yrotation Xrotation
								JOINT LeftFingerBase
								{
									OFFSET 0 0 0
									CHANNELS 3 Zrotation Yrotation Xrotation
									JOINT LeftHandIndex1
									{
										OFFSET 0.72750 -0.00000 0.00000
										CHANNELS 3 Zrotation Yrotation Xrotation
										End Site
										{
											OFFSET 0.58653 -0.00000 0.00000
										}
									}
								}
								JOINT LThumb
								{
									OFFSET 0 0 0
									CHANNELS 3 Zrotation Yrotation Xrotation
									End Site
									{
										OFFSET 0.59549 -0.00000 0.59549
									}
								}
							}
						}
					}
				}
				JOINT RightShoulder
				{
					OFFSET 0 0 0
					CHANNELS 3 Zrotation Yrotation Xrotation
					JOINT RightArm
					{
						OFFSET -3.23015 0.55830 0.31051
						CHANNELS 3 Zrotation Yrotation Xrotation
						JOINT RightForeArm
						{
							OFFSET -5.58976 -0.00010 0.00014
							CHANNELS 3 Zrotation Yrotation Xrotation
							JOINT RightHand
							{
								OFFSET -2.48060 -0.00000 0.00000
								CHANNELS 3 Zrotation Yrotation Xrotation
								JOINT RightFingerBase
								{
									OFFSET 0 0 0
									CHANNELS 3 Zrotation Yrotation Xrotation
									JOINT RightHandIndex1
									{
										OFFSET -0.81601 -0.00000 0.00000
										CHANNELS 3 Zrotation Yrotation Xrotation
										End Site
										{
											OFFSET -0.65789 -0.00000 0.00000
										}
									}
								}
								JOINT RThumb
								{
									OFFSET 0 0 0
									CHANNELS 3 Zrotation Yrotation Xrotation
									End Site
									{
										OFFSET -0.66793 -0.00000 0.66793
									}
								}
							}
						}
					}
				}
			}
		}
	}
}
MOTION
Frames: 7
Frame Time: 0.033333
4.3228 16.5929 -15.2362 0 0 0 0 0 0 -21 0 0 0 0 0 0 0 0 0 0 0 0 0 0 21 0 0 0 0 0 0 0 0 0 0 0 0 0 0 0 0 0 0 0 0 0 0 -16 0 0 21 0 0 11 0 0 0 -8 0 0 0 0 0 0 0 0 0 0 0 0 0 0 0 0 0 0 0 0 8 0 0 0 0 0 0 0 0 0 0 0 0 0 0 0 0 0
4.3203 16.5782 -15.2401 -3.1987 9.0550 30.2461 0.0000 0.0000 0.0000 -26.1106 10.3069 -26.8290 4.3621 12.6273 37.9889 0.4989 42.2355 32.1181 0.1228 -2.2589 -6.2218 0.0000 0.0000 0.0000 28.8961 18.0650 -40.8724 -2.3922 -9.6392 27.8162 -2.3450 -19.3851 -40.9138 -1.4264 -7.5522 21.3619 3.9087 -2.9526 -18.4791 5.3086 -4.4354 -11.8629 2.7238 -2.2597 -2.3246 -2.6125 -7.5303 -14.9236 -2.5052 -10.0468 40.4010 -2.5504 -4.8954 17.2746 0.0000 -0.0000 0.0000 -86.2653 26.3025 31.1442 17.3618 -27.3323 -4.2521 -0.0000 0.0000 -6.0147 1.9217 16.4506 0.5444 -7.1250 0.0000 -0.0000 -23.8248 45.0019 -0.0012 0.0000 -0.0000 0.0000 74.5479 -21.5184 29.3335 -12.8920 21.1288 -2.4142 0.0000 -0.0000 -18.0225 1.4397 13.1060 0.3265 7.1250 -0.0000 -0.0000 19.5979 -17.2788 13.7238
4.3206 16.5729 -15.2277 -3.3703 8.9713 30.1660 0.0000 0.0000 0.0000 -25.9006 10.3169 -26.6205 4.3437 12.6043 37.9047 1.6007 39.8814 34.6536 0.3900 -4.0100 -11.1049 0.0000 0.0000 0.0000 29.2237 17.8468 -40.7555 -2.3818 -9.6197 27.7538 -2.1621 -19.3862 -40.0720 -1.3586 -7.3781 20.8405 4.0449 -2.7727 -18.4411 5.2657 -4.1985 -12.0901 2.6555 -2.1505 -2.6141 -1.7349 -6.5545 -16.6609 -2.5513 -8.9464 42.9083 -2.7729 -4.2021 19.1711 -0.0000 -0.0000 0.0000 -86.2262 26.6742 31.0738 17.4761 -27.4811 -4.3047 -0.0000 0.0000 -6.1134 2.0841 16.8627 0.6048 -7.1250 0.0000 -0.0000 -23.8552 45.3979 -0.2487 -0.0000 -0.0000 0.0000 74.8184 -22.0258 29.7236 -13.1161 21.4570 -2.4956 0.0000 -0.0000 -17.4514 -2.1467 14.4934 -0.5375 7.1250 -0.0000 -0.0000 17.1149 -15.8716 12.3524
4.3288 16.5643 -15.2035 -3.5144 8.5463 29.4552 0.0000 0.0000 0.0000 -25.9084 11.1237 -25.7650 4.2722 12.5141 37.5759 1.1243 40.7827 33.4485 0.2666 -3.3216 -9.1753 0.0000 0.0000 0.0000 29.6096 17.4020 -39.9451 -2.3915 -9.6379 27.8118 -2.3027 -18.8517 -40.2689 -1.3722 -7.4133 20.9457 3.9246 -2.5198 -18.0853 5.2446 -3.8342 -11.9428 2.7659 -1.9591 -2.6329 -1.4096 -5.5850 -15.6937 -1.5866 -7.9191 42.6272 -2.0934 -3.6237 18.7948 0.0000 0.0000 0.0000 -86.5476 26.5261 30.0205 17.1827 -27.0980 -4.1702 -0.0000 0.0000 -5.4241 1.6148 15.6418 0.4355 -7.1250 0.0000 -0.0000 -23.7616 44.2268 0.4820 0.0000 0.0000 0.0000 75.2994 -21.6226 27.9406 -12.4960 20.5442 -2.2733 0.0000 -0.0000 -15.3230 -5.0447 15.4519 -1.3473 7.1250 -0.0000 -0.0000 15.1443 -14.8266 11.1684
4.3333 16.5673 -15.1838 -3.7398 8.3645 29.1542 0.0000 0.0000 0.0000 -25.7500 11.5068 -25.3501 4.2232 12.4516 37.3489 -1.0583 44.2292 27.9059 0.0013 0.2362 0.6491 0.0000 0.0000 0.0000 29.9591 17.1681 -39.7418 -2.4037 -9.6607 27.8849 -1.7144 -20.1510 -38.6252 -0.9049 -6.0622 16.9651 4.0776 -2.2928 -17.8296 5.2371 -3.5226 -12.1648 2.7433 -1.8127 -3.0276 -0.8359 -4.6149 -15.8763 -1.0154 -6.8921 43.6355 -1.7668 -3.0006 19.5096 0.0000 0.0000 0.0000 -86.6376 27.1634 30.2494 17.1826 -27.0979 -4.1702 -0.0000 0.0000 -5.8361 1.9110 15.6279 0.5150 -7.1250 0.0000 -0.0000 -23.5011 44.2477 0.4632 0.0000 0.0000 0.0000 75.6603 -22.1123 27.3290 -12.5345 20.6013 -2.2869 0.0000 -0.0000 -15.2774 -7.4872 15.7187 -2.0392 7.1250 -0.0000 -0.0000 13.5190 -14.4316 10.0109
4.3308 16.5699 -15.1606 -3.5515 7.8884 29.2080 0.0000 0.0000 0.0000 -26.1642 11.7671 -25.0918 4.0918 12.2816 36.7355 0.0109 42.7153 30.6662 0.0417 -1.3178 -3.6238 0.0000 0.0000 0.0000 29.3267 17.9435 -39.9125 -2.4899 -9.8196 28.3945 -1.6499 -20.9022 -39.0301 -0.8295 -5.8105 16.2356 3.6327 -2.0862 -17.8422 5.1126 -3.1652 -12.5554 2.9303 -1.6116 -3.4396 0.0366 -3.5946 -15.7992 -0.8555 -5.6935 44.6601 -1.6304 -2.3243 20.1570 -0.0000 -0.0000 0.0000 -86.6880 27.9662 30.5587 17.1951 -27.1142 -4.1759 -0.0000 0.0000 -5.9282 1.3503 16.3904 0.3811 -7.1250 0.0000 -0.0000 -24.2948 44.8796 0.0769 -0.0000 -0.0000 0.0000 76.1949 -22.7797 26.1209 -12.3944 20.3935 -2.2378 0.0000 -0.0000 -15.6682 -9.7854 17.2885 -2.9341 7.1250 -0.0000 -0.0000 11.9667 -12.7291 9.2444
4.3346 16.5598 -15.1466 -3.6143 8.0443 29.3153 0.0000 0.0000 0.0000 -25.9903 11.5101 -25.1428 4.0977 12.2893 36.7631 2.3608 38.4990 36.6826 0.7196 -5.4207 -15.1125 0.0000 0.0000 0.0000 29.7379 17.3061 -39.8219 -2.4532 -9.7524 28.1785 -1.4268 -20.7352 -37.7636 -0.6734 -5.2473 14.6153 3.8419 -1.9258 -18.0442 5.0198 -2.9866 -12.6334 2.7368 -1.5361 -3.4452 0.9742 -2.7345 -16.3079 -0.7311 -4.7412 45.2885 -1.5708 -1.7397 20.7413 0.0000 -0.0000 0.0000 -86.5851 28.0486 31.2062 17.1722 -27.0842 -4.1654 -0.0000 0.0000 -6.2651 1.3742 16.1335 0.3819 -7.1250 0.0000 -0.0000 -24.1680 44.6483 0.2233 0.0000 -0.0000 0.0000 76.9566 -23.0862 25.0100 -12.6635 20.7922 -2.3325 0.0000 -0.0000 -17.3391 -12.8443 17.0388 -3.8223 7.1250 -0.0000 -0.0000 9.9540 -12.7232 7.6361
